<?xml version="1.0" encoding="utf-8"?>
<!-- Generator: Adobe Illustrator 15.0.0, SVG Export Plug-In . SVG Version: 6.00 Build 0)  -->
<!DOCTYPE svg PUBLIC "-//W3C//DTD SVG 1.1//EN" "http://www.w3.org/Graphics/SVG/1.1/DTD/svg11.dtd">
<svg version="1.1" id="Layer_1" xmlns="http://www.w3.org/2000/svg" xmlns:xlink="http://www.w3.org/1999/xlink" x="0px" y="0px"
	 width="30px" height="30px" viewBox="-3.625 -3.625 30 30" enable-background="new -3.625 -3.625 30 30" xml:space="preserve">
<g>
	<path fill="#1A1A1A" d="M7.952,16.031c-0.315,0-0.632-0.121-0.873-0.362c-0.482-0.482-0.482-1.262,0-1.746l6.844-6.842
		c0.483-0.483,1.263-0.483,1.746,0c0.484,0.483,0.484,1.264,0,1.747l-6.843,6.841C8.586,15.91,8.269,16.031,7.952,16.031z"/>
</g>
<g>
	<path fill="#1A1A1A" d="M14.795,16.031c-0.316,0-0.632-0.121-0.873-0.362L7.08,8.828c-0.482-0.483-0.482-1.264,0-1.747
		c0.483-0.483,1.265-0.483,1.747,0l6.841,6.842c0.485,0.484,0.485,1.264,0,1.746C15.427,15.91,15.111,16.031,14.795,16.031z"/>
</g>
<g>
	<g>
		<g>
			<path fill="#1A1A1A" d="M23.498-0.625v24H-0.748v-24H23.498 M26.498-3.625H-3.748v30h30.246V-3.625L26.498-3.625z"/>
		</g>
	</g>
</g>
</svg>
