<?xml version="1.0" encoding="utf-8"?>
<!-- Generator: Adobe Illustrator 20.1.0, SVG Export Plug-In . SVG Version: 6.00 Build 0)  -->
<svg version="1.1" id="Layer_1" xmlns="http://www.w3.org/2000/svg" xmlns:xlink="http://www.w3.org/1999/xlink" x="0px" y="0px"
	 width="300px" height="1200px" viewBox="0 0 300 1200" style="enable-background:new 0 0 300 1200;" xml:space="preserve">
<style type="text/css">
	.st0{fill:#382C85;}
	.st1{fill:#006600;}
	.st2{fill:none;stroke:#70706E;stroke-width:0.7484;stroke-miterlimit:10;}
	.st3{fill:#FFFFFF;}
	.st4{fill-rule:evenodd;clip-rule:evenodd;fill:#FFFFFF;stroke:#382C85;stroke-miterlimit:10;}
	.st5{fill:#FFFFFF;stroke:#FFFFFF;stroke-width:7.620000e-02;}
	.st6{fill:#1F1A17;stroke:#1F1A17;stroke-width:7.620000e-02;}
	.st7{fill:#1F1A17;stroke:#1F1A17;stroke-width:0.1262;}
	.st8{fill:#1F1A17;}
</style>
<rect x="0.3" y="0.6" class="st0" width="299.4" height="1199.3"/>
<rect x="-1149" y="701" class="st1" width="116.1" height="116.1"/>
<rect x="-355.7" y="0.6" class="st2" width="299.4" height="299.4"/>
<rect x="-355.7" y="300.5" class="st2" width="299.4" height="299.4"/>
<rect x="-355.7" y="599.6" class="st2" width="299.4" height="299.4"/>
<rect x="-355.7" y="900.5" class="st2" width="299.4" height="299.4"/>
<path class="st3" d="M377.3,1060.9c0.1,1.1-2.3,2-2.3,2c-0.9,0.5-1.5,0.7-2.5,1.2s-2,0.9-2.7,1.2c-0.8,0.3-1.3,0.5-1.9,0.7
	c-3.5,1.1-6.9,1.4-10.5,0.2c-0.6-0.2-1.1-0.5-1.6-0.7c-0.5-0.3-1-0.6-1.5-1s-0.9-0.8-1.3-1.2c-0.4-0.4-0.7-0.9-1-1.4
	c-0.9-1.6-1.3-3.3-1.6-4.9c-0.2-1.8,0-3.8,0.4-5.8c0.3-1.3,0.8-2.7,1.5-4.1c0.7-1.3,1.5-2.6,2.5-3.9c0.5-0.6,1-1.2,1.6-1.8
	c1.1-1.2,2.4-2.3,3.6-3.1c1.3-0.9,2.5-1.6,3.8-2.1c0.7-0.3,1.3-0.6,2.1-0.8c1.6-0.6,3.4-1.1,5.2-1.3c0.9-0.1,1.8-0.2,2.6-0.2
	c1.5-0.1,2.5-0.1,3.7,0.2c0.6,0.1,1.2,0.2,1.6,0.4c0.9,0.3,1.6,0.5,2.4,0.9c0.4,0.2,0.7,0.4,1.1,0.6c0.3,0.2,0.7,0.5,1,0.8
	c0.3,0.3,0.6,0.6,0.8,1c0.8,1.1,1.1,2.4,1.2,3.7c0,0.4,0,0.9,0,1.3c-0.1,0.7-0.2,1.3-0.4,2c-0.3,1-0.9,2.2-1.6,3.3
	c-0.5,0.8-1.2,1.6-2.1,2.6c-0.4,0.5-0.9,0.9-1.4,1.3s-1,0.8-1.5,1.2c-1.1,0.8-2.3,1.5-3.5,2.1c-1.9,0.9-3.8,1.6-5.6,1.9
	c-0.6,0.1-1.3,0.1-1.7,0.2c-0.4,0-0.7,0-0.9,0c-0.8,0-1.5-0.1-2.3-0.4c-0.6-0.2-1.1-0.4-1.7-0.8c-0.3-0.2-0.6-0.4-0.9-0.7
	c-0.8-0.8-1.2-1.9-1.4-2.8c-0.1-0.3-0.1-0.6-0.1-0.9s0-0.6,0-1c0.1-0.9,0.3-2.2,0.8-3.3c0.2-0.6,0.5-1.1,0.9-1.7s1-1.3,1.6-1.9
	s1.3-1.2,2-1.8c0.7-0.5,1.5-1,2.1-1.3c1.3-0.7,2.1-1,3.2-1.3c1-0.3,2.1-0.5,3.1-0.5c0.5,0,1,0,1.3,0c0.3,0,0.4,0,0.4,0
	c0.3,0.1,0.5,0,0.9,0.4c0.2,0.3,0.2,0.6,0.1,0.9c-0.1,0.1-0.2,0.3-0.4,0.5c-0.2,0.1-0.4,0.1-0.6,0.2c-0.4,0-1,0.1-1.4,0.1
	c-0.1,0-0.3,0-0.5,0.1c-0.5,0.1-1.3,0.2-2,0.5c-0.7,0.2-1.6,0.5-2.5,1c-0.5,0.2-1,0.5-1.4,0.8s-0.9,0.6-1.2,0.9
	c-0.7,0.6-1.1,1-1.4,1.5c-0.4,0.5-0.6,1-0.8,1.4c-0.7,1.5-0.8,3.1,0.1,4.8c0.1,0.2,0.3,0.4,0.5,0.6c0.4,0.4,0.9,0.8,1.4,1
	c0.8,0.3,1.6,0.4,2.4,0.4c0.3,0,0.5,0,1-0.1c0.9-0.1,2.4-0.4,3.7-0.9c0.6-0.2,1.2-0.5,1.8-0.7c1-0.5,1.7-0.9,2.6-1.5
	c0.4-0.3,0.8-0.6,1.1-0.8c0.3-0.3,0.6-0.5,0.9-0.8c0.3-0.3,0.5-0.5,0.8-0.8c0.2-0.3,0.5-0.6,0.7-0.9c0.5-0.8,1-1.7,1.3-2.6
	c0.2-0.5,0.3-0.9,0.4-1.3c0.2-0.8,0.2-1.3,0.1-2c-0.2-1.1-0.6-2.1-1.8-3.3c-1.4-1.1-3.1-1.6-4.6-1.7c-1-0.1-2.2-0.1-3.3,0
	c-0.4,0-0.8,0.1-1.3,0.2c-1.1,0.2-2.6,0.6-3.8,1.1c-0.6,0.2-1.3,0.5-1.8,0.8c-1.1,0.5-2,1.1-3,1.8c-0.9,0.7-2,1.6-3.1,2.7
	c-0.6,0.6-1.1,1.2-1.6,1.8c-0.5,0.6-0.9,1.3-1.2,1.8c-0.3,0.5-0.5,0.8-0.7,1.2c-0.7,1.3-1.2,2.8-1.6,4.1c-0.1,0.3-0.2,0.7-0.2,1.1
	c-0.1,0.8-0.2,1.9-0.2,2.8s0.2,1.9,0.5,2.8c0.2,0.4,0.4,0.9,0.6,1.3s0.5,0.8,0.8,1.1c0.3,0.4,0.7,0.7,1.1,1c0.4,0.3,0.8,0.6,1.2,0.8
	c0.4,0.2,0.9,0.4,1.2,0.6c0.7,0.3,1.3,0.3,1.9,0.4c0.3,0,0.6,0.1,1.1,0.1s1.3,0,2,0c0.7,0,1.5-0.2,2.2-0.3c1.5-0.3,3.2-0.9,4.9-1.7
	c0.9-0.4,1.7-0.9,2.2-1.1c0.5-0.3,0.7-0.4,0.8-0.5C375.5,1059.8,377.2,1058.5,377.3,1060.9z"/>
<path class="st3" d="M202.2,754.2c-0.2-0.3-0.4-0.4-0.6-0.5c-0.7-0.2-1.3,0-1.9,0.7c-0.9,1.1-1.4,2.2-2.1,3.3
	c-0.4,0.5-0.8,1.1-1.1,1.6c-0.3,0.4-0.6,0.7-0.9,1c-0.6,0.6-1.3,1.3-1.7,1.6c-0.2,0.1-0.3,0.2-0.4,0.3c-0.3,0.1-0.5,0.2-0.8,0.2
	c-0.2,0-0.5-0.2-0.5-0.4c-0.1-1,0.2-2,0.6-3c0.3-0.6,0.7-1.3,1.1-2c0.4-0.7,1-1.3,1.2-1.9c0.1-0.4,0.2-0.7,0.1-1.1
	c-0.1-0.3-0.4-0.6-0.7-0.7c-0.9-0.2-1.7,0.2-2.5,1.1c-0.1,0.1-0.2,0.3-0.5,0.6c-0.2,0.3-0.6,0.7-0.9,1.1s-0.6,0.7-0.9,1
	c-0.3,0.4-0.7,0.9-1.1,1.3c-0.2,0.3-0.5,0.6-0.7,0.9c-1,1.1-2,2.1-3,2.8c-0.3,0.2-0.7,0.4-1,0.4c-0.2,0-0.4-0.2-0.5-0.4
	c-0.1-0.8,0.1-1.6,0.4-2.3c0.4-1.2,1.3-2.5,2.2-3.7c0.6-0.8,1-1.8-0.1-2.4c-0.3-0.1-0.6-0.1-0.9-0.1c-0.1,0.1-0.1,0-0.4,0.1
	c-0.1,0.1-0.4,0.1-0.7,0.2c-0.2,0.1-0.4,0.1-0.5,0.1c-0.3,0.1-0.7,0.1-1,0.1c0.3-0.4,0.5-0.9,0.7-1.3c0.1-0.7,0.3-1.5-0.5-2
	c-0.1-0.1-0.3-0.1-0.4-0.1c-0.7-0.1-1.3,0.1-2,0.9c-0.4,0.4-0.6,0.9-0.7,1.3c-0.2,0.7-0.3,1.7-0.3,2.2c0,0.2,0.1,0.4,0.1,0.6
	c-0.7,1.6-1.8,3.3-3.4,5c-0.4,0.4-0.8,0.7-1,0.9c-0.5,0.3-1.1,0.6-1.6,0.2c-0.3-0.4-0.4-0.7-0.4-1c0.3-0.4,0.6-0.7,0.9-1.1
	c0.8-1.1,1.6-1.9,2.1-3.1c0.3-0.7,0.5-1.3,0.6-1.7c0.1-0.2,0.1-0.4,0.1-0.6c0-0.6,0.1-1.2-0.5-1.7c-0.7-0.4-1.4-0.2-2.1,0.2
	c-0.7,0.6-1.4,1.5-1.9,2.2c-1,1.6-1.4,3.3-1.8,5c-0.1,0.1-0.2,0.3-0.3,0.5c-0.4,0.5-1,1.2-1.6,1.5c-0.3,0.1-0.7,0.4-1,0.2
	c-0.3-0.1-0.5-0.4-0.6-0.5c-0.1-0.5,0-1,0.1-1.6c0.1-0.6,0.3-1,0.7-1.7c0.1-0.4,0.4-0.8,0.7-1.2c0.2-0.4,0.5-0.8,0.7-1.2
	c0.2-0.4,0.4-0.7,0.7-1c0.2-0.3,0.4-0.6,0.6-0.8c0.1-0.2,0.2-0.3,0.2-0.4c0.4-0.7,0.4-1.5-0.4-2c-0.8-0.4-1.5-0.2-2.1,0.4
	c-0.7,0.9-1.6,1.7-2.4,2.4c-0.4,0.3-0.7,0.5-1.1,0.7c-0.7,0.4-1.3,0.7-1.9,0.7c0.1-0.7,0-1.3-0.1-2c-0.2-0.9-0.4-1.7-1.3-2.5
	c-0.3-0.2-0.6-0.4-1-0.5c-0.7-0.2-1.5-0.1-2.1,0.1c0.4-1.3,0.9-2.7,1.6-4c0.4-0.6,0.7-1.3,1.2-1.8c0.1-0.2,0.4-0.4,0.5-0.7
	c0.7-0.7,1.4-1.4,1.7-2c0.4-0.7,0.4-1.3-0.2-1.9c-0.4-0.4-1-0.3-1.4-0.2c-0.7,0.1-1.2,0.6-1.9,1.3c-0.3,0.4-0.5,0.7-0.7,1
	c-0.7,0.4-1.3,0.7-2,0.9c-1.9,0.3-3.6,0.6-5.6-0.6c-0.3-0.1-0.5-0.4-0.8-0.5c-0.5-0.4-0.8-0.8-1.1-1.2c-0.3-0.3-0.6-0.5-0.8-0.7
	c-0.7-0.3-1.2-0.2-1.8,0.4c-0.1,0.1-0.2,0.2-0.3,0.4c-0.2,0.5-0.1,1,0,1.3c0.1,0.3,0.3,0.5,0.5,1c0.1,0.1,0.2,0.4,0.4,0.7
	c0.1,0.2,0.2,0.4,0.4,0.7c0.8,1.7,1.3,3.3,1.1,4.9c-0.7,0.2-1.5,0.6-2.1,1c-0.9,0.5-1.8,1.3-2.6,2.2c-0.4,0.6-0.9,1.2-1.3,1.9
	s-0.7,1.3-0.9,2c-0.3,0.9-0.5,1.8-0.6,2.7c-0.1,0.2-0.4,0.4-0.6,0.7c-0.6,0.6-1.3,1.1-1.7,1.3c-0.3,0.1-0.7,0.2-1,0.2
	c-0.5,0-1-0.1-1.5-0.7c-0.2-0.4-0.4-0.7-0.4-1.1c-0.1-1.5,0.1-2.9,0.4-4.4c0.1-0.6,0.3-1.1,0.5-1.9s0.5-1.9,0.7-2.4
	c0.1-0.6,0.2-0.7,0.3-0.9c0.2-0.8,0.2-1.8-0.1-2.4c-0.2-0.2-0.3-0.4-0.6-0.5c-0.1-0.1-0.4-0.1-0.7-0.2c-0.7-0.2-1.6,0-2.4,0.2
	c-0.6,0.2-1,0.4-1.8,0.9c-0.4,0.2-0.8,0.6-1.3,1c-0.4,0.4-0.9,0.7-1.3,1.1c-2.1,2.1-3.5,4.4-4.5,6.5c-0.1,0.1-0.4,0.2-0.5,0.4
	c-0.1,0.1-0.4,0.2-0.9,0.5c-0.5,0.3-1.5,0.8-2.4,1.2c-1.9,0.8-3.6,1.5-5.2,1.8c-0.8,0.1-1.6,0.3-2.4,0.3c-0.8,0.1-1.6,0.1-2.1,0
	c-0.6,0-0.9-0.1-1.2-0.1c-0.7-0.1-1.2-0.2-2-0.4c-0.4-0.1-0.9-0.4-1.3-0.6c-0.4-0.2-0.9-0.5-1.3-0.9c-0.4-0.3-0.8-0.7-1.1-1
	c-0.4-0.4-0.7-0.8-0.9-1.2c-0.3-0.4-0.5-0.9-0.7-1.3c-0.4-1-0.5-2-0.5-3c-0.1-1,0.1-2.1,0.2-3c0.1-0.4,0.1-0.8,0.2-1.2
	c0.4-1.4,0.9-3,1.7-4.4c0.2-0.4,0.4-0.7,0.7-1.3c0.4-0.5,0.8-1.3,1.3-1.9c0.5-0.7,1-1.3,1.6-1.9c1.2-1.2,2.3-2.1,3.3-2.9
	c1-0.7,2-1.3,3.2-1.9c0.6-0.3,1.3-0.6,2-0.9c1.4-0.5,3-1,4.1-1.1c0.6-0.1,1-0.1,1.4-0.2c1.2-0.1,2.4-0.1,3.6-0.1
	c1.6,0.1,3.4,0.6,4.9,1.8c1.3,1.2,1.7,2.4,1.9,3.5c0.1,0.7,0.1,1.3-0.1,2.1c-0.1,0.4-0.2,1-0.4,1.4c-0.4,1-0.9,1.9-1.5,2.7
	c-0.3,0.4-0.5,0.7-0.8,1s-0.5,0.6-0.8,0.9s-0.6,0.5-1,0.8c-0.4,0.3-0.7,0.6-1.2,0.9c-0.9,0.6-1.7,1.1-2.7,1.6
	c-0.5,0.3-1.2,0.5-1.9,0.7c-1.3,0.4-3,0.8-3.9,1c-0.5,0.1-0.7,0.1-1,0.1c-0.8,0-1.7-0.1-2.5-0.4c-0.5-0.2-1.1-0.6-1.6-1
	c-0.2-0.2-0.4-0.4-0.5-0.7c-1-1.8-0.8-3.5-0.1-5.1c0.2-0.4,0.5-1,0.9-1.6c0.4-0.6,0.8-1,1.6-1.6c0.4-0.3,0.8-0.7,1.3-1
	c0.4-0.3,1-0.7,1.5-0.9c1-0.5,1.9-0.9,2.7-1.1c0.7-0.2,1.6-0.4,2.1-0.5c0.3-0.1,0.4-0.1,0.6-0.1c0.5-0.1,1.1-0.1,1.5-0.1
	c0.2,0,0.4,0,0.7-0.1c0.2-0.1,0.4-0.4,0.4-0.5c0.1-0.3,0.1-0.7-0.1-1c-0.4-0.4-0.7-0.4-1-0.4c-0.1,0-0.1,0-0.4,0s-0.8,0-1.3,0.1
	c-1.1,0.1-2.2,0.3-3.3,0.6c-1.1,0.3-2.1,0.7-3.5,1.4c-0.7,0.4-1.5,0.9-2.2,1.4c-0.7,0.6-1.5,1.2-2.1,1.9s-1.3,1.4-1.7,2.1
	c-0.4,0.7-0.7,1.3-1,1.9c-0.5,1.2-0.8,2.6-0.9,3.6c-0.1,0.4-0.1,0.8,0,1.1c0,0.3,0.1,0.6,0.1,1c0.2,1,0.7,2.2,1.6,3
	c0.3,0.3,0.6,0.6,0.9,0.8c0.6,0.4,1.1,0.7,1.8,0.9c0.9,0.3,1.6,0.4,2.5,0.4c0.3,0,0.5,0,1,0c0.4,0,1.2-0.1,1.9-0.1c2-0.3,4-1,6.1-2
	c1.3-0.7,2.6-1.4,3.8-2.3c0.6-0.4,1.1-0.8,1.6-1.3c0.5-0.4,1-1,1.5-1.4c1-1,1.7-1.9,2.2-2.7c0.8-1.3,1.4-2.5,1.7-3.6
	c0.2-0.7,0.4-1.3,0.4-2.1c0-0.4,0-0.9,0-1.3c-0.1-1.3-0.4-2.7-1.3-3.9c-0.2-0.4-0.5-0.7-0.9-1c-0.3-0.3-0.7-0.6-1-0.8
	s-0.7-0.4-1.1-0.7c-0.8-0.4-1.6-0.7-2.5-1c-0.5-0.1-1.1-0.3-1.8-0.4c-1.3-0.2-2.4-0.2-4-0.1c-0.8,0.1-1.8,0.1-2.7,0.2
	c-1.9,0.2-3.9,0.8-5.6,1.4c-0.8,0.3-1.6,0.6-2.2,0.9c-1.3,0.6-2.7,1.3-4.1,2.3c-1.3,1-2.7,2.1-3.9,3.3c-0.6,0.6-1.2,1.3-1.7,1.9
	c-1.1,1.3-2,2.7-2.7,4.1c-0.7,1.5-1.3,3-1.6,4.4c-0.5,2.1-0.7,4.4-0.4,6.3c0.2,1.8,0.7,3.6,1.7,5.3c0.3,0.5,0.7,1,1.1,1.5
	c0.4,0.4,0.9,0.9,1.4,1.3c0.5,0.4,1,0.7,1.6,1c0.6,0.3,1.2,0.6,1.8,0.8c3.8,1.3,7.6,1,11.3-0.2c0.6-0.2,1.3-0.4,2.1-0.7
	c0.8-0.3,1.9-0.7,2.9-1.3c1-0.5,2.1-1.2,2.7-1.3c0.5-0.1,0.4,0.4,0.4,0.7c-0.1,0.4,0,0.7,0,1c0,0.2,0,0.4,0.1,0.6
	c0.1,0.6,0.3,1.3,1.1,1.9c0.1,0.1,0.4,0.2,0.5,0.2c0.6,0.1,1,0.1,1.7-0.1c0.2-0.1,0.5-0.2,0.8-0.4c0.5-0.3,1-0.7,1.6-1.2
	c0.2-0.2,0.4-0.5,0.7-0.8c0.2-0.3,0.4-0.6,0.7-0.9c0.2-0.4,0.4-0.7,0.6-0.7c0.1-0.1,0.1,0.2,0.2,0.4c0.1,0.4,0.3,0.9,0.7,1.5
	c0.1,0.3,0.4,0.5,0.6,0.7s0.4,0.4,0.7,0.7s0.6,0.3,1,0.4c1.1,0.4,2.3,0.1,3.5-0.4c0.4-0.2,0.8-0.4,1.3-0.7c0.4-0.3,0.8-0.7,1-0.7
	c0.2-0.1,0.3,0.3,0.4,0.5s0.2,0.4,0.4,0.7c0.1,0.2,0.3,0.4,0.5,0.5c0.4,0.4,0.8,0.5,1.2,0.6c1.3,0.1,2.5-0.3,3.7-1.6
	c0.1-0.1,0.3-0.4,0.6-0.7c0.2-0.4,0.6-0.9,1-1.4c0.3-0.5,0.6-1.1,0.9-1.6c0.3-0.6,0.5-1.1,0.7-1.9c0.2-0.7,0.4-1.5,0.7-2.2
	c0.2-0.8,0.4-1.6,0.4-2.4c0.2-1.6,0.3-3,0.1-4.7c-0.1-0.8-0.3-1.7,0-2.1c0.2-0.4,0.9-0.1,1.5-0.1c0.6,0.1,1.2,0.1,1.8,0
	c0.6-0.1,1.3-0.3,1.4,0.1c0.1,0.4-0.4,1.4-0.8,2.3c-0.4,1-0.7,1.9-1,2.7c-0.3,0.9-0.5,1.8-0.7,2.6c-0.1,0.7-0.3,1.4-0.4,2.1
	c-0.2,1.3-0.3,2.7-0.3,3.7c0,0.5,0,0.8,0.1,1.2c0.1,0.7,0.3,1.3,0.5,1.9c0.1,0.2,0.2,0.4,0.3,0.6c0.2,0.4,0.4,0.7,0.8,1
	c0.2,0.1,0.4,0.3,0.7,0.4c1.5,0.6,2.8-0.1,4.1-1.6c0.2-0.2,0.4-0.5,0.6-0.9c0.2-0.4,0.4-0.8,0.7-1.3c0.2-0.4,0.4-0.9,0.6-1.3
	c0-0.5,0.1-1,0.4-1.3s0.7-0.4,1.2-0.6c0.4-0.1,0.8-0.4,1.3-0.5c-0.1,0.4-0.3,0.7-0.4,1.1c-0.4,1-0.6,2.1-0.6,3c0,0.2,0,0.5,0,0.7
	c0.1,0.8,0.2,1.6,1.1,2.3c0.1,0.1,0.4,0.2,0.6,0.3c0.7,0.3,1.3,0.1,2.1-0.1s1.5-0.7,2.2-1.3c0.3-0.2,0.5-0.4,0.7-0.5
	c0.1,0,0.2,0.1,0.2,0.3c0.1,0.4,0.4,0.8,0.8,1.2c0.1,0.1,0.3,0.2,0.4,0.3c1,0.4,1.9,0.2,2.7-0.2c0.3-0.1,0.4-0.3,0.9-0.7
	c0.2-0.2,0.5-0.4,0.8-0.7s0.5-0.6,0.8-0.9c0.2-0.3,0.5-0.6,0.8-1c0.3-0.4,0.7-1,1-1.5c0.4-0.5,0.7-1.1,1-1.7c0.3-0.6,0.7-1.2,1-1.6
	c0.3-0.3,0.5-0.4,0.7-0.2c0.2,0,0.4-0.1,0.6-0.1s0.5-0.2,0.4,0c0,0.2-0.4,0.7-0.7,1.1c-0.3,0.4-0.5,1-0.7,1.4
	c-0.4,0.9-0.7,1.7-0.8,2.4c-0.1,0.7-0.1,1.5,0.1,2c0.1,0.3,0.1,0.4,0.2,0.6c0.1,0.3,0.4,0.7,0.7,1c0.1,0.1,0.4,0.3,0.5,0.3
	c1.1,0.3,2.2-0.1,3.3-1c0.6-0.4,1.3-1,1.8-1.5c0.2-0.2,0.4-0.4,0.6-0.6c0.3-0.3,0.3-0.4,0.7-0.7c0.1-0.1,0.4-0.4,0.5-0.6
	c0.1-0.1,0.2-0.2,0.2-0.2c0.1-0.1,0.1-0.1,0.1-0.1c-0.1,0.3-0.1,0.5-0.1,0.8c-0.1,0.7-0.1,1.6,0.1,2.1c0.1,0.3,0.1,0.6,0.3,0.9
	c0.2,0.4,0.5,0.7,0.9,0.8c0.7,0.2,1.4,0.1,2.3-0.2c0.4-0.1,0.7-0.3,1.2-0.7c0.3-0.2,0.7-0.5,1.1-0.9c0.4-0.4,0.9-0.9,1-0.6
	c0,0.2-0.4,1.2-0.8,1.6c-0.5,0.9-1,1.8-1.3,2.4c-0.4,0.7-0.6,1.1-0.8,1.5l-0.6,1.3c-0.1,0.3-0.2,0.7-0.3,1c0,0.3,0.1,0.7,0.4,1.1
	c0.3,0.4,0.7,0.8,0.8,1.1c0.1,0.2,0.2,0.3,0.3,0.4c0.1,0.1,0.1,0.1,0.1,0.1c0.1,0.1,0.2,0.1,0.3,0c0.4-1.4,1.3-2.9,1.9-4.4
	c0.1-0.1,0.1-0.3,0.5-1s1-1.9,1.6-3s1.1-2.1,1.5-2.8c0.4-0.7,0.7-1.3,0.9-1.7c0.5-1,1-2.1,1.6-3.2c0.4-0.7,0.7-1.5,0.7-2.2
	C202.4,755,202.4,754.6,202.2,754.2z M134.8,752.1c0,0.1-0.1,0.1-0.2,0.5s-0.4,1-0.7,1.7c-0.3,0.7-0.7,1.3-1,1.9s-0.6,1-0.9,1.6
	s-0.6,1-0.9,1.4c-0.3,0.4-0.6,0.8-0.9,1.2c-0.3,0.4-0.6,0.7-0.7,0.9c-0.1,0.2-0.2,0.2-0.3,0.3c-0.1,0.1-0.5,0.3-0.7,0
	c-0.1-0.1-0.1-0.4-0.2-0.5c0-0.3,0-0.8,0.1-1.3c0.1-0.4,0.2-0.8,0.4-1.3c0.1-0.2,0.1-0.4,0.2-0.7c0.1-0.3,0.2-0.5,0.4-1
	c0.4-0.8,0.9-2,1.7-3c0.4-0.4,0.7-0.9,1-1.2c0.3-0.3,0.4-0.4,0.6-0.6c0.1-0.1,0.3-0.3,0.4-0.4c0.3-0.2,0.5-0.4,0.7-0.4
	c0.2-0.1,0.6-0.1,0.8,0.1C134.9,751.6,134.9,751.8,134.8,752.1z M148.2,756.9c-0.1,0.5-0.4,1-0.5,1.5c-0.4,1-0.8,1.8-1.5,2.7
	c-0.1,0.1-0.2,0.2-0.3,0.4c-0.3,0.3-0.5,0.4-0.7,0.5c-0.2,0.1-0.4,0.1-0.7-0.1c-0.1-0.1-0.2-0.4-0.3-0.6c-0.2-0.8,0-1.7,0.1-2.6
	c0.3-1,0.8-2.2,1.9-3.5c0.8-0.7,1.6-1.3,2.4-1.5C148.7,754.7,148.6,755.8,148.2,756.9z M159.1,759c-0.1,0.3-0.1,0.6-0.2,0.8
	c-0.1,0.4-0.3,0.7-0.4,1c-0.1,0.1-0.1,0.3-0.2,0.4c-0.1,0.3-0.4,0.5-0.6,0.6c-0.3,0.1-0.7,0.2-1-0.2c-0.1-0.2-0.2-0.5-0.3-0.8
	c-0.1-0.2-0.1-0.6-0.1-1c-0.1-1,0.1-2,0.3-3c0.1-0.7,0.3-1.3,0.7-1.9c0.1-0.1,0.2-0.3,0.3-0.4c0.5-0.5,1-0.6,1.6-0.1
	c0.4,0.4,0.4,0.9,0.4,1.3c0,0.2,0,0.4,0,0.7C159.4,757.3,159.3,758.1,159.1,759z"/>
<path class="st4" d="M382.9,1023.9l0-28.8l0,0l0,0c0-1,0-2-0.1-3c0-0.4,0-0.7-0.1-1.1c-0.1-0.6-0.2-1.2-0.8-1.6
	c-0.2-0.1-0.4-0.2-0.6-0.3c-1.5-0.4-3-0.9-4.4-1.7c-0.6-0.3-1.2-0.6-1.6-0.9c-0.4-0.2-0.6-0.4-0.8-0.5c-0.1-0.1-0.3-0.2-0.5-0.3
	c-0.4,0-0.7,0.1-1,0.1c0.4,0.3,0.8,0.6,1.2,0.9c0.8,0.6,1.9,1.2,2.5,1.5c0.3,0.2,0.6,0.3,0.8,0.4c0.2,0.1,0.5,0.2,0.7,0.3
	c-2.5,0.1-5.1-0.5-7.5-1.8c0.1,0.2,0.2,0.3,0.3,0.5c0.3,0.4,0.5,0.6,0.8,0.7c0.6,0.3,1.3,0.5,1.9,0.7c2.4,0.8,4.8,0.6,7.1,0.8
	c0.3,0,0.8,0.3,0.9,0.6c0.2,0.7,0.3,1.3,0.3,1.9l0,0l0.2,7.7l-4.4,10.6l0,0c-0.1,0.3-0.3,0.6-0.6,0.9c-0.2,0.2-0.5,0.4-0.7,0.6
	c-0.3,0.2-0.5,0.3-0.8,0.4c-1.8,0.6-3.7,0.4-5.2,0c-1.1-0.3-2.1-0.8-3.2-1.7c-1.2-0.9-1.7-2.1-1.9-2.8c-0.1-0.5-0.2-1-0.1-1.5
	c2-7.9,4.2-15.9,6.2-23.8c0.1-0.4,0.3-0.8,0.8-1.2c0.9-0.5,1.7-0.6,2.5-0.5c0.6,0,1,0,1.9,0.2c0.4,0.1,1,0.2,1.6,0.3
	c1.1,0.3,2.4,0.7,3.4,1.1c0.5,0.2,0.9,0.4,1.3,0.6c1.2,0.6,2.3,1.4,3.5,2.6c1.7,1.6,1.3,3,1.1,4.5c-1.2,5.3-1.8,10.5-2,15.8l0,0
	l-0.4,18l5.3,0l0.2-9.5l0,0c0-3,0-5.9-0.2-8.9c-0.1-0.8-0.2-1.8-0.3-2.4c0-0.3-0.1-0.5-0.1-0.7c0-0.4,0-0.8,0.1-1.1
	c-0.3-0.3-0.5-0.6-0.8-0.9c-0.2-0.3-0.4-0.7-0.6-1c-0.1-0.4-0.3-0.7-0.3-1.1c-0.1-0.4-0.1-0.9-0.2-1.4c-0.1-1.4,0.2-2.7,0.7-3.9
	c0.4-1,1.1-2,2-3c0.3-0.3,0.6-0.6,0.9-0.9c0.3-0.3,0.7-0.5,1.1-0.7c0.4-0.2,0.8-0.5,1.2-0.6c1.4-0.6,2.8-0.8,4.1-0.7
	c0.9,0.1,1.8,0.4,2.5,0.8c0.4,0.2,0.7,0.4,1,0.6c0.3,0.2,0.6,0.5,0.8,0.7c0.3,0.3,0.5,0.6,0.7,0.9l0,0l8.5,12.9l0,0
	c0.3,0.5,0.5,1.1,0.6,1.6c0.2,1.4-0.2,2.8-1.3,4.1c-0.6,0.7-1.2,1.2-1.9,1.6c-1.4,0.8-2.8,1.2-4.1,1c-0.7-0.1-1.5-0.5-2.2-1l0,0
	l-8.5-6.2l0,0c0-0.1,0-0.2,0-0.3c0.1-0.3,0.4-0.5,0.6-0.6c4.3,0.8,8.7,0.5,12.9-0.6c0.4-0.1,0.7-0.3,1.1-0.5c0.4-0.2,0.8-0.6,0.9-1
	c-1,0.5-2.1,0.9-3.2,1.1c-0.5,0.1-1.1,0.2-1.8,0.3c-0.8,0.1-1.7,0.2-2.7,0.2c-1.9,0.1-3.8,0.1-5.7-0.1c0.7-0.1,1.4-0.4,2-0.7
	c0.6-0.3,1.3-0.7,1.8-1.1c0.6-0.4,1.1-1,1.6-1.6c0.1-0.2,0.3-0.4,0.4-0.6c-0.2,0-0.4,0-0.6,0c-0.1,0-0.1,0-0.2,0
	c-0.1,0.1-0.1,0.2-0.2,0.2c-0.6,0.6-1.2,1.2-1.9,1.6c-0.7,0.5-1.4,0.8-2.2,1.1c-0.8,0.3-1.6,0.5-2.4,0.6c-0.4,0.1-0.7,0.2-1,0.7
	c-0.4,0.7-0.5,1.3-0.6,2c-0.4,6.2-0.7,12.5-1,18.7l0,0"/>
<g>
	<path id="_1391543680" class="st3" d="M173.9,746.8c0.6,1.5,2.5,0.9,3.1,0.9c0.7,0,1.5,1,1.6,1.5h0.3v-0.4
		C178.8,746.1,173.9,743.3,173.9,746.8z"/>
	<path id="_128637464" class="st3" d="M185.9,746.5l0.2,1.5c0.4-0.6,0.9-1.5,1.8-1.6c1-0.1,1.9,0.1,1.9-1.3c0-0.6-0.4-1.2-1-1.2
		C187.4,743.9,185.9,744.9,185.9,746.5z"/>
	<path id="_130133800" class="st5" d="M178.7,725.4c0,0-4.2,7.1-4.3,7.3c-0.1,0.2-0.3,0.3-0.3,0.3c-0.1,0.2-0.2,0.3-0.5,0.5
		c-0.3,0.1-2.6,0.3-4.4-0.7c-1.8-1-2.1-1.7-2.3-2c-0.1-0.2,0-0.6,0-0.6c-0.2-0.3,0-0.6,0-0.6c-0.1-0.1,0-0.4,0-0.4l3.4-14l0.1,0.4
		l-0.5,1.9c0,0,0.1,0,0.1,0c0.2-0.2,0.5-0.4,0.9-0.6c0.9,1.2,2.6,2.2,4.7,2.9c1.3,0.4,2.6,0.6,3.7,0.6c1.8,0,3-0.6,3.5-1.4
		c0.3,1.6-0.6,4.3-0.7,5.3c-0.9,8.4,0.1,17-0.9,25.4c0.3,1.4-1.4,2.7-1.4,0.6C179.6,750.4,178.7,728.3,178.7,725.4L178.7,725.4z
		 M171.1,716.8c0.5-0.2,1-0.4,1-0.4c3.9-0.9,8.8,0.4,10.1,1.7c0.2,0.2,0.3,0.5,0.4,0.9c0,0,0-0.1-0.1-0.2c0-0.1,0-0.1-0.1-0.2
		c0,0.2-0.1,0.2-0.1,0.2c-0.5,1.3-3.5,1.8-6.8,0.7C173.6,719,172,717.9,171.1,716.8L171.1,716.8z"/>
	<path id="_128941880" class="st5" d="M184.2,735.4c0-1.7-0.1-7.1-0.2-8.1c-0.1-1,0-1.7,0-1.7c0-1.9,4.1-2.1,4.1-2.1
		c1.1-0.1,2.6-0.1,3.6-0.1c3.9,0.2,5.2,0.9,5.2,0.9c-0.1-0.1-3.5-5.5-3.5-5.5l-0.3-0.8c0.3,0.3,4.9,7.4,5.1,7.8
		c0.2,0.3,0.4,0.9,0.4,0.9c0.2,2-1,3.2-1.7,3.8c-0.8,0.6-2.1,0.9-2.5,1c-0.4,0.1-0.8-0.1-0.8-0.1c-0.1,0-0.5,0-1.2-0.3
		c-0.3-0.2-5.5-3.8-5.8-4c-0.3-0.2-0.3,1-0.3,1c-0.8,15.3-1.1,23.1-1.1,23.1c-0.1,1.2-1,2.4-1,0C184.3,746,184.2,736.6,184.2,735.4
		L184.2,735.4z"/>
	<path id="_1394948672" class="st5" d="M182.7,718.8c0.5-1.7-1.8-3.9-5.3-5c-3.5-1.1-6.7-0.7-7.2,1c-0.2,0.6,0,1.3,0.6,2.2l0.3-0.1
		c-0.6-0.7-0.8-1.4-0.6-1.9c0.5-1.5,3.6-1.9,6.8-0.8c3.2,1,5.4,3.1,5.1,4.5c0,0,0.1,0.2,0.1,0.5
		C182.6,719.1,182.7,718.9,182.7,718.8z"/>
	<path id="_130509960" class="st5" d="M184,725.7c-0.2-0.2-0.4-0.4-0.6-0.6c-0.6-0.8-0.9-1.9-0.7-3c0.2-1.6,1.2-3.2,2.7-4.3
		c2.6-2,6-2,7.6,0c1.3,1.6,1,4-0.6,6.1l-0.2-0.2c1.5-1.9,1.8-4.2,0.6-5.7c-1.5-1.9-4.7-1.9-7.2,0c-1.4,1.1-2.3,2.6-2.5,4.1
		c-0.1,1.1,0.1,2,0.7,2.8c0.1,0.2,0.2,0.3,0.4,0.4c0,0,0,0.1,0,0.2C184,725.6,184,725.7,184,725.7L184,725.7z"/>
	<path id="_1402117992" class="st6" d="M186.8,726.6c-1.1,0-2.1-0.3-2.8-0.9c0,0,0-0.1,0-0.2c0-0.1,0-0.2,0-0.2
		c1.6,1.5,4.6,1.2,6.8-0.5c0.5-0.4,1-0.8,1.4-1.4c0,0,0.1,0,0.2,0c0.1,0,0.2,0,0.2,0c-0.4,0.6-1.1,1.2-1.5,1.6
		C189.7,726.1,188.2,726.6,186.8,726.6L186.8,726.6z"/>
	<path id="_129872144" class="st6" d="M179.2,720.5c-1.1,0-2.4-0.2-3.7-0.6c-2.1-0.7-3.9-1.8-4.8-3l0.2-0.2c0.9,1.2,2.6,2.2,4.6,2.9
		c3.3,1.1,6.3,0.6,6.8-0.7c0,0,0-0.1,0.1-0.2c0,0.1,0,0.1,0.1,0.2c0.1,0.2,0.1,0.3,0.1,0.3C182.2,719.9,181,720.5,179.2,720.5
		L179.2,720.5z"/>
	<path id="_1406148224" class="st7" d="M174.5,720.1c-2.9,0-4-0.7-4.3-1c-0.4-0.3-0.6-0.9-0.6-1.3c0-0.2,0-0.2,0-0.3l0.1,0
		c0,0,0,0,0,0.3c0,0.3,0.2,0.8,0.6,1.2c0.3,0.2,1.4,1,4.3,0.9c0,0,1.3-0.1,1.6-0.1l0,0.1c-0.3,0-1.5,0.1-1.6,0.1
		C174.5,720.1,174.5,720.1,174.5,720.1z"/>
	<path id="_129598688" class="st7" d="M178.6,725.7c-0.3-4.7-0.7-5.1-0.8-5.3c0,0-0.1-0.1-0.1-0.1l0.1,0c0,0,0,0,0.1,0.1
		c0.2,0.2,0.5,0.7,0.8,5.4L178.6,725.7L178.6,725.7z"/>
</g>
<g>
	<path id="_1391543680_1_" class="st3" d="M140.2,1053.1c0.7,1.6,2.8,1,3.4,1c0.8,0,1.7,1.1,1.8,1.7h0.3v-0.4
		C145.7,1052.3,140.2,1049.2,140.2,1053.1z"/>
	<path id="_128637464_1_" class="st3" d="M153.7,1052.8l0.2,1.6c0.4-0.6,1-1.7,2-1.7c1.1-0.1,2.1,0.1,2.1-1.5c0-0.6-0.4-1.4-1.1-1.4
		C155.3,1049.8,153.7,1051,153.7,1052.8z"/>
	<path id="_130133800_1_" class="st3" d="M145.6,1029.3c0,0-4.7,7.9-4.8,8.1c-0.1,0.2-0.3,0.4-0.3,0.4c-0.1,0.2-0.2,0.4-0.6,0.5
		c-0.4,0.1-2.9,0.3-4.9-0.8c-2-1.1-2.4-1.9-2.5-2.2c-0.1-0.3,0-0.7,0-0.7c-0.2-0.3,0-0.7,0-0.7c-0.1-0.1,0-0.5,0-0.5l3.8-15.5
		l0.1,0.5l-0.5,2.1c0,0,0.1,0,0.1,0c0.2-0.3,0.6-0.5,1-0.7c1,1.3,2.9,2.5,5.2,3.2c1.5,0.5,2.9,0.7,4.1,0.7c2,0,3.4-0.6,3.9-1.6
		c0.3,1.8-0.6,4.8-0.8,5.9c-1,9.4,0.2,19-1,28.2c0.4,1.5-1.5,3.1-1.5,0.7C146.6,1057,145.6,1032.5,145.6,1029.3L145.6,1029.3z
		 M137.2,1019.7c0.6-0.2,1.1-0.4,1.1-0.4c4.3-1,9.8,0.5,11.2,1.9c0.2,0.2,0.4,0.6,0.5,1c0,0,0-0.1-0.1-0.2c0-0.1,0-0.1-0.1-0.3
		c0,0.2-0.1,0.3-0.1,0.3c-0.6,1.5-3.9,2-7.6,0.8C140,1022.1,138.1,1020.9,137.2,1019.7L137.2,1019.7z"/>
	<path id="_128941880_1_" class="st3" d="M151.7,1040.4c0-1.8-0.1-7.9-0.2-9c-0.1-1.1,0-1.9,0-1.9c0-2.1,4.5-2.4,4.5-2.4
		c1.2-0.1,2.9-0.1,4-0.1c4.3,0.2,5.7,1,5.7,1c-0.1-0.1-3.9-6.1-3.9-6.1l-0.3-0.8c0.3,0.3,5.4,8.3,5.7,8.6c0.2,0.4,0.4,1,0.4,1
		c0.2,2.2-1.1,3.5-1.9,4.2c-0.8,0.7-2.4,1-2.8,1.1c-0.5,0.1-0.9-0.1-0.9-0.1c-0.1,0-0.5,0-1.3-0.4c-0.3-0.2-6.2-4.2-6.5-4.4
		c-0.3-0.2-0.3,1.1-0.3,1.1c-0.9,17-1.2,25.8-1.2,25.8c-0.1,1.3-1.1,2.7-1.1,0C151.8,1052.2,151.7,1041.7,151.7,1040.4L151.7,1040.4
		z"/>
	<path id="_1394948672_1_" class="st3" d="M150.1,1021.9c0.5-1.9-2-4.3-5.9-5.6c-3.9-1.3-7.4-0.8-8,1.1c-0.2,0.7-0.1,1.5,0.7,2.4
		l0.3-0.1c-0.7-0.8-0.8-1.6-0.7-2.2c0.5-1.7,4-2.1,7.6-0.9c3.6,1.2,6,3.5,5.7,5c0,0,0.1,0.2,0.2,0.6
		C150,1022.2,150.1,1022,150.1,1021.9z"/>
	<path id="_130509960_1_" class="st3" d="M151.5,1029.6c-0.2-0.2-0.5-0.5-0.7-0.7c-0.7-0.9-1-2.1-0.8-3.4c0.2-1.8,1.3-3.5,3-4.8
		c2.9-2.2,6.7-2.2,8.4,0c1.4,1.8,1.1,4.5-0.6,6.7l-0.3-0.2c1.7-2.1,1.9-4.6,0.6-6.3c-1.6-2.1-5.2-2.1-8,0c-1.6,1.2-2.6,2.9-2.8,4.5
		c-0.2,1.2,0.1,2.3,0.8,3.1c0.2,0.2,0.3,0.3,0.5,0.5c0,0,0,0.1,0,0.2C151.5,1029.5,151.5,1029.6,151.5,1029.6L151.5,1029.6z"/>
	<path id="_1402117992_1_" class="st8" d="M154.7,1030.6c-1.2,0-2.4-0.4-3.2-1c0,0,0-0.1,0-0.2c0-0.1,0-0.2,0-0.2
		c1.8,1.6,5.1,1.4,7.5-0.5c0.5-0.4,1.1-0.9,1.5-1.5c0,0,0.1,0,0.2,0c0.1,0,0.2,0,0.2,0c-0.5,0.7-1.2,1.4-1.7,1.8
		C157.9,1030,156.2,1030.6,154.7,1030.6L154.7,1030.6z"/>
	<path id="_129872144_1_" class="st8" d="M146.1,1023.8c-1.2,0-2.6-0.2-4.1-0.7c-2.3-0.8-4.3-2-5.3-3.4l0.3-0.2
		c0.9,1.3,2.9,2.5,5.1,3.2c3.7,1.2,7,0.7,7.6-0.8c0,0,0-0.1,0.1-0.3c0.1,0.1,0,0.1,0.1,0.3c0.1,0.2,0.1,0.3,0.1,0.3
		C149.5,1023.2,148.2,1023.8,146.1,1023.8L146.1,1023.8z"/>
	<path id="_1406148224_1_" class="st8" d="M140.9,1023.3c-3.2,0-4.4-0.8-4.7-1.1c-0.5-0.4-0.7-1-0.7-1.4c0-0.3,0-0.3,0-0.3l0.2,0
		c0,0,0,0,0,0.3c0,0.4,0.2,0.9,0.6,1.3c0.3,0.3,1.5,1.1,4.8,1c0,0,1.4-0.1,1.8-0.1l0,0.1c-0.4,0.1-1.7,0.1-1.8,0.1
		C141,1023.3,140.9,1023.3,140.9,1023.3z"/>
	<path id="_129598688_1_" class="st8" d="M145.5,1029.5c-0.3-5.2-0.7-5.7-0.9-5.9c0,0-0.1-0.1-0.1-0.1l0.1,0c0,0,0,0.1,0.1,0.1
		c0.2,0.2,0.6,0.8,0.9,6L145.5,1029.5L145.5,1029.5z"/>
</g>
</svg>
